<?xml version="1.0" encoding="UTF-8" standalone="no"?><svg xmlns="http://www.w3.org/2000/svg" xmlns:xlink="http://www.w3.org/1999/xlink" contentScriptType="application/ecmascript" contentStyleType="text/css" height="843px" preserveAspectRatio="none" style="width:1235px;height:843px;" version="1.1" viewBox="0 0 1235 843" width="1235px" zoomAndPan="magnify"><defs><filter height="300%" id="f3k438og15hmx" width="300%" x="-1" y="-1"><feGaussianBlur result="blurOut" stdDeviation="2.0"/><feColorMatrix in="blurOut" result="blurOut2" type="matrix" values="0 0 0 0 0 0 0 0 0 0 0 0 0 0 0 0 0 0 .4 0"/><feOffset dx="4.0" dy="4.0" in="blurOut2" result="blurOut3"/><feBlend in="SourceGraphic" in2="blurOut3" mode="normal"/></filter></defs><g><ellipse cx="628" cy="20" fill="#000000" filter="url(#f3k438og15hmx)" rx="10" ry="10" style="stroke: none; stroke-width: 1.0;"/><rect fill="#FEFECE" filter="url(#f3k438og15hmx)" height="33.9688" rx="12.5" ry="12.5" style="stroke: #A80036; stroke-width: 1.5;" width="89" x="583.5" y="50"/><text fill="#000000" font-family="sans-serif" font-size="12" lengthAdjust="spacingAndGlyphs" textLength="65" x="597.5" y="71.1387">git commit</text><rect fill="#FEFECE" filter="url(#f3k438og15hmx)" height="33.9688" rx="12.5" ry="12.5" style="stroke: #A80036; stroke-width: 1.5;" width="75" x="590.5" y="103.9688"/><text fill="#000000" font-family="sans-serif" font-size="12" lengthAdjust="spacingAndGlyphs" textLength="51" x="604.5" y="125.1074">git push</text><rect fill="#FFFFFF" filter="url(#f3k438og15hmx)" height="643.3687" style="stroke: #000000; stroke-width: 2.0;" width="1214" x="10" y="148.7393"/><path d="M122,149.7393 L122,158.0361 L112,168.0361 L10,168.0361 " fill="none" style="stroke: #000000; stroke-width: 2.0;"/><text fill="#000000" font-family="sans-serif" font-size="14" lengthAdjust="spacingAndGlyphs" textLength="102" x="13" y="162.7344">GitHub Actions</text><rect fill="#000000" filter="url(#f3k438og15hmx)" height="6" rx="2.5" ry="2.5" style="stroke: #000000; stroke-width: 1.0;" width="1194" x="20" y="185.0361"/><rect fill="#FEFECE" filter="url(#f3k438og15hmx)" height="33.9688" rx="12.5" ry="12.5" style="stroke: #A80036; stroke-width: 1.5;" width="143" x="474.5" y="211.0361"/><text fill="#000000" font-family="sans-serif" font-size="12" lengthAdjust="spacingAndGlyphs" textLength="119" x="488.5" y="232.1748">build docker image</text><rect fill="#FFFFFF" filter="url(#f3k438og15hmx)" height="134.2656" style="stroke: #000000; stroke-width: 2.0;" width="1040" x="34" y="255.8066"/><path d="M71,256.8066 L71,265.1035 L61,275.1035 L34,275.1035 " fill="none" style="stroke: #000000; stroke-width: 2.0;"/><text fill="#000000" font-family="sans-serif" font-size="14" lengthAdjust="spacingAndGlyphs" textLength="27" x="37" y="269.8018">test</text><rect fill="#000000" filter="url(#f3k438og15hmx)" height="6" rx="2.5" ry="2.5" style="stroke: #000000; stroke-width: 1.0;" width="1020" x="44" y="292.1035"/><rect fill="#FEFECE" filter="url(#f3k438og15hmx)" height="33.9688" rx="12.5" ry="12.5" style="stroke: #A80036; stroke-width: 1.5;" width="132" x="58" y="318.1035"/><text fill="#000000" font-family="sans-serif" font-size="12" lengthAdjust="spacingAndGlyphs" textLength="108" x="72" y="339.2422">test bash default</text><rect fill="#FEFECE" filter="url(#f3k438og15hmx)" height="33.9688" rx="12.5" ry="12.5" style="stroke: #A80036; stroke-width: 1.5;" width="108" x="200" y="318.1035"/><text fill="#000000" font-family="sans-serif" font-size="12" lengthAdjust="spacingAndGlyphs" textLength="84" x="214" y="339.2422">test bash 3.2</text><rect fill="#FEFECE" filter="url(#f3k438og15hmx)" height="33.9688" rx="12.5" ry="12.5" style="stroke: #A80036; stroke-width: 1.5;" width="108" x="318" y="318.1035"/><text fill="#000000" font-family="sans-serif" font-size="12" lengthAdjust="spacingAndGlyphs" textLength="84" x="332" y="339.2422">test bash 4.0</text><rect fill="#FEFECE" filter="url(#f3k438og15hmx)" height="33.9688" rx="12.5" ry="12.5" style="stroke: #A80036; stroke-width: 1.5;" width="108" x="436" y="318.1035"/><text fill="#000000" font-family="sans-serif" font-size="12" lengthAdjust="spacingAndGlyphs" textLength="84" x="450" y="339.2422">test bash 4.1</text><rect fill="#FEFECE" filter="url(#f3k438og15hmx)" height="33.9688" rx="12.5" ry="12.5" style="stroke: #A80036; stroke-width: 1.5;" width="108" x="572" y="318.1035"/><text fill="#000000" font-family="sans-serif" font-size="12" lengthAdjust="spacingAndGlyphs" textLength="84" x="586" y="339.2422">test bash 4.2</text><rect fill="#FEFECE" filter="url(#f3k438og15hmx)" height="33.9688" rx="12.5" ry="12.5" style="stroke: #A80036; stroke-width: 1.5;" width="108" x="708" y="318.1035"/><text fill="#000000" font-family="sans-serif" font-size="12" lengthAdjust="spacingAndGlyphs" textLength="84" x="722" y="339.2422">test bash 4.3</text><rect fill="#FEFECE" filter="url(#f3k438og15hmx)" height="33.9688" rx="12.5" ry="12.5" style="stroke: #A80036; stroke-width: 1.5;" width="108" x="826" y="318.1035"/><text fill="#000000" font-family="sans-serif" font-size="12" lengthAdjust="spacingAndGlyphs" textLength="84" x="840" y="339.2422">test bash 4.4</text><rect fill="#FEFECE" filter="url(#f3k438og15hmx)" height="33.9688" rx="12.5" ry="12.5" style="stroke: #A80036; stroke-width: 1.5;" width="108" x="944" y="318.1035"/><text fill="#000000" font-family="sans-serif" font-size="12" lengthAdjust="spacingAndGlyphs" textLength="84" x="958" y="339.2422">test bash 5.0</text><rect fill="#000000" filter="url(#f3k438og15hmx)" height="6" rx="2.5" ry="2.5" style="stroke: #000000; stroke-width: 1.0;" width="1020" x="44" y="372.0723"/><rect fill="#FEFECE" filter="url(#f3k438og15hmx)" height="33.9688" rx="12.5" ry="12.5" style="stroke: #A80036; stroke-width: 1.5;" width="65" x="1084" y="275.4707"/><text fill="#000000" font-family="sans-serif" font-size="12" lengthAdjust="spacingAndGlyphs" textLength="41" x="1098" y="296.6094">format</text><rect fill="#FEFECE" filter="url(#f3k438og15hmx)" height="33.9688" rx="12.5" ry="12.5" style="stroke: #A80036; stroke-width: 1.5;" width="43" x="1159" y="275.4707"/><text fill="#000000" font-family="sans-serif" font-size="12" lengthAdjust="spacingAndGlyphs" textLength="19" x="1173" y="296.6094">lint</text><rect fill="#000000" filter="url(#f3k438og15hmx)" height="6" rx="2.5" ry="2.5" style="stroke: #000000; stroke-width: 1.0;" width="1194" x="20" y="410.0723"/><rect fill="#FFFFFF" filter="url(#f3k438og15hmx)" height="253.5234" style="stroke: #000000; stroke-width: 2.0;" width="207" x="524.5" y="482.5845"/><path d="M657.5,483.5845 L657.5,491.8813 L647.5,501.8813 L524.5,501.8813 " fill="none" style="stroke: #000000; stroke-width: 2.0;"/><text fill="#000000" font-family="sans-serif" font-size="14" lengthAdjust="spacingAndGlyphs" textLength="123" x="527.5" y="496.5796">update-repository</text><rect fill="#FEFECE" filter="url(#f3k438og15hmx)" height="33.9688" rx="12.5" ry="12.5" style="stroke: #A80036; stroke-width: 1.5;" width="187" x="534.5" y="518.8813"/><text fill="#000000" font-family="sans-serif" font-size="12" lengthAdjust="spacingAndGlyphs" textLength="163" x="548.5" y="540.02">generate super_unko.deb</text><rect fill="#FEFECE" filter="url(#f3k438og15hmx)" height="33.9688" rx="12.5" ry="12.5" style="stroke: #A80036; stroke-width: 1.5;" width="187" x="534.5" y="572.8501"/><text fill="#000000" font-family="sans-serif" font-size="12" lengthAdjust="spacingAndGlyphs" textLength="163" x="548.5" y="593.9888">generate super_unko.rpm</text><rect fill="#FEFECE" filter="url(#f3k438og15hmx)" height="33.9688" rx="12.5" ry="12.5" style="stroke: #A80036; stroke-width: 1.5;" width="178" x="539" y="636.1704"/><text fill="#000000" font-family="sans-serif" font-size="12" lengthAdjust="spacingAndGlyphs" textLength="154" x="553" y="657.3091">generate markdown TOC</text><rect fill="#FEFECE" filter="url(#f3k438og15hmx)" height="33.9688" rx="12.5" ry="12.5" style="stroke: #A80036; stroke-width: 1.5;" width="79" x="588.5" y="690.1392"/><text fill="#000000" font-family="sans-serif" font-size="12" lengthAdjust="spacingAndGlyphs" textLength="51" x="602.5" y="711.2778">git push</text><polygon fill="#FEFECE" filter="url(#f3k438og15hmx)" points="576,436.0723,680,436.0723,692,448.0723,680,460.0723,576,460.0723,564,448.0723,576,436.0723" style="stroke: #A80036; stroke-width: 1.5;"/><text fill="#000000" font-family="sans-serif" font-size="11" lengthAdjust="spacingAndGlyphs" textLength="23" x="632" y="470.2827">true</text><text fill="#000000" font-family="sans-serif" font-size="11" lengthAdjust="spacingAndGlyphs" textLength="104" x="576" y="451.8804">is branch master?</text><polygon fill="#FEFECE" filter="url(#f3k438og15hmx)" points="628,756.1079,640,768.1079,628,780.1079,616,768.1079,628,756.1079" style="stroke: #A80036; stroke-width: 1.5;"/><ellipse cx="628" cy="822.1079" fill="#FFFFFF" filter="url(#f3k438og15hmx)" rx="10" ry="10" style="stroke: #000000; stroke-width: 1.5;"/><line style="stroke: #000000; stroke-width: 2.5;" x1="621.8128" x2="634.1872" y1="815.9207" y2="828.2951"/><line style="stroke: #000000; stroke-width: 2.5;" x1="634.1872" x2="621.8128" y1="815.9207" y2="828.2951"/><line style="stroke: #A80036; stroke-width: 1.5;" x1="628" x2="628" y1="30" y2="50"/><polygon fill="#A80036" points="624,40,628,50,632,40,628,44" style="stroke: #A80036; stroke-width: 1.0;"/><line style="stroke: #A80036; stroke-width: 1.5;" x1="628" x2="628" y1="83.9688" y2="103.9688"/><polygon fill="#A80036" points="624,93.9688,628,103.9688,632,93.9688,628,97.9688" style="stroke: #A80036; stroke-width: 1.0;"/><line style="stroke: #A80036; stroke-width: 1.5;" x1="124" x2="124" y1="298.1035" y2="318.1035"/><polygon fill="#A80036" points="120,308.1035,124,318.1035,128,308.1035,124,312.1035" style="stroke: #A80036; stroke-width: 1.0;"/><line style="stroke: #A80036; stroke-width: 1.5;" x1="254" x2="254" y1="298.1035" y2="318.1035"/><polygon fill="#A80036" points="250,308.1035,254,318.1035,258,308.1035,254,312.1035" style="stroke: #A80036; stroke-width: 1.0;"/><line style="stroke: #A80036; stroke-width: 1.5;" x1="372" x2="372" y1="298.1035" y2="318.1035"/><polygon fill="#A80036" points="368,308.1035,372,318.1035,376,308.1035,372,312.1035" style="stroke: #A80036; stroke-width: 1.0;"/><line style="stroke: #A80036; stroke-width: 1.5;" x1="490" x2="490" y1="298.1035" y2="318.1035"/><polygon fill="#A80036" points="486,308.1035,490,318.1035,494,308.1035,490,312.1035" style="stroke: #A80036; stroke-width: 1.0;"/><line style="stroke: #A80036; stroke-width: 1.5;" x1="626" x2="626" y1="298.1035" y2="318.1035"/><polygon fill="#A80036" points="622,308.1035,626,318.1035,630,308.1035,626,312.1035" style="stroke: #A80036; stroke-width: 1.0;"/><line style="stroke: #A80036; stroke-width: 1.5;" x1="762" x2="762" y1="298.1035" y2="318.1035"/><polygon fill="#A80036" points="758,308.1035,762,318.1035,766,308.1035,762,312.1035" style="stroke: #A80036; stroke-width: 1.0;"/><line style="stroke: #A80036; stroke-width: 1.5;" x1="880" x2="880" y1="298.1035" y2="318.1035"/><polygon fill="#A80036" points="876,308.1035,880,318.1035,884,308.1035,880,312.1035" style="stroke: #A80036; stroke-width: 1.0;"/><line style="stroke: #A80036; stroke-width: 1.5;" x1="998" x2="998" y1="298.1035" y2="318.1035"/><polygon fill="#A80036" points="994,308.1035,998,318.1035,1002,308.1035,998,312.1035" style="stroke: #A80036; stroke-width: 1.0;"/><line style="stroke: #A80036; stroke-width: 1.5;" x1="124" x2="124" y1="352.0723" y2="372.0723"/><polygon fill="#A80036" points="120,362.0723,124,372.0723,128,362.0723,124,366.0723" style="stroke: #A80036; stroke-width: 1.0;"/><line style="stroke: #A80036; stroke-width: 1.5;" x1="254" x2="254" y1="352.0723" y2="372.0723"/><polygon fill="#A80036" points="250,362.0723,254,372.0723,258,362.0723,254,366.0723" style="stroke: #A80036; stroke-width: 1.0;"/><line style="stroke: #A80036; stroke-width: 1.5;" x1="372" x2="372" y1="352.0723" y2="372.0723"/><polygon fill="#A80036" points="368,362.0723,372,372.0723,376,362.0723,372,366.0723" style="stroke: #A80036; stroke-width: 1.0;"/><line style="stroke: #A80036; stroke-width: 1.5;" x1="490" x2="490" y1="352.0723" y2="372.0723"/><polygon fill="#A80036" points="486,362.0723,490,372.0723,494,362.0723,490,366.0723" style="stroke: #A80036; stroke-width: 1.0;"/><line style="stroke: #A80036; stroke-width: 1.5;" x1="626" x2="626" y1="352.0723" y2="372.0723"/><polygon fill="#A80036" points="622,362.0723,626,372.0723,630,362.0723,626,366.0723" style="stroke: #A80036; stroke-width: 1.0;"/><line style="stroke: #A80036; stroke-width: 1.5;" x1="762" x2="762" y1="352.0723" y2="372.0723"/><polygon fill="#A80036" points="758,362.0723,762,372.0723,766,362.0723,762,366.0723" style="stroke: #A80036; stroke-width: 1.0;"/><line style="stroke: #A80036; stroke-width: 1.5;" x1="880" x2="880" y1="352.0723" y2="372.0723"/><polygon fill="#A80036" points="876,362.0723,880,372.0723,884,362.0723,880,366.0723" style="stroke: #A80036; stroke-width: 1.0;"/><line style="stroke: #A80036; stroke-width: 1.5;" x1="998" x2="998" y1="352.0723" y2="372.0723"/><polygon fill="#A80036" points="994,362.0723,998,372.0723,1002,362.0723,998,366.0723" style="stroke: #A80036; stroke-width: 1.0;"/><line style="stroke: #A80036; stroke-width: 1.5;" x1="546" x2="546" y1="245.0049" y2="292.1035"/><polygon fill="#A80036" points="542,282.1035,546,292.1035,550,282.1035,546,286.1035" style="stroke: #A80036; stroke-width: 1.0;"/><line style="stroke: #A80036; stroke-width: 1.5;" x1="546" x2="546" y1="191.0361" y2="211.0361"/><polygon fill="#A80036" points="542,201.0361,546,211.0361,550,201.0361,546,205.0361" style="stroke: #A80036; stroke-width: 1.0;"/><line style="stroke: #A80036; stroke-width: 1.5;" x1="1116.5" x2="1116.5" y1="191.0361" y2="275.4707"/><polygon fill="#A80036" points="1112.5,265.4707,1116.5,275.4707,1120.5,265.4707,1116.5,269.4707" style="stroke: #A80036; stroke-width: 1.0;"/><line style="stroke: #A80036; stroke-width: 1.5;" x1="1180.5" x2="1180.5" y1="191.0361" y2="275.4707"/><polygon fill="#A80036" points="1176.5,265.4707,1180.5,275.4707,1184.5,265.4707,1180.5,269.4707" style="stroke: #A80036; stroke-width: 1.0;"/><line style="stroke: #A80036; stroke-width: 1.5;" x1="546" x2="546" y1="378.0723" y2="410.0723"/><polygon fill="#A80036" points="542,400.0723,546,410.0723,550,400.0723,546,404.0723" style="stroke: #A80036; stroke-width: 1.0;"/><line style="stroke: #A80036; stroke-width: 1.5;" x1="1116.5" x2="1116.5" y1="309.4395" y2="410.0723"/><polygon fill="#A80036" points="1112.5,400.0723,1116.5,410.0723,1120.5,400.0723,1116.5,404.0723" style="stroke: #A80036; stroke-width: 1.0;"/><line style="stroke: #A80036; stroke-width: 1.5;" x1="1180.5" x2="1180.5" y1="309.4395" y2="410.0723"/><polygon fill="#A80036" points="1176.5,400.0723,1180.5,410.0723,1184.5,400.0723,1180.5,404.0723" style="stroke: #A80036; stroke-width: 1.0;"/><line style="stroke: #A80036; stroke-width: 1.5;" x1="628" x2="628" y1="552.8501" y2="572.8501"/><polygon fill="#A80036" points="624,562.8501,628,572.8501,632,562.8501,628,566.8501" style="stroke: #A80036; stroke-width: 1.0;"/><line style="stroke: #A80036; stroke-width: 1.5;" x1="628" x2="628" y1="606.8188" y2="636.1704"/><polygon fill="#A80036" points="624,626.1704,628,636.1704,632,626.1704,628,630.1704" style="stroke: #A80036; stroke-width: 1.0;"/><line style="stroke: #A80036; stroke-width: 1.5;" x1="628" x2="628" y1="670.1392" y2="690.1392"/><polygon fill="#A80036" points="624,680.1392,628,690.1392,632,680.1392,628,684.1392" style="stroke: #A80036; stroke-width: 1.0;"/><line style="stroke: #A80036; stroke-width: 1.5;" x1="628" x2="628" y1="460.0723" y2="518.8813"/><polygon fill="#A80036" points="624,508.8813,628,518.8813,632,508.8813,628,512.8813" style="stroke: #A80036; stroke-width: 1.0;"/><line style="stroke: #A80036; stroke-width: 1.5;" x1="692" x2="741.5" y1="448.0723" y2="448.0723"/><polygon fill="#A80036" points="737.5,606.1704,741.5,616.1704,745.5,606.1704,741.5,610.1704" style="stroke: #A80036; stroke-width: 1.5;"/><line style="stroke: #A80036; stroke-width: 1.5;" x1="741.5" x2="741.5" y1="448.0723" y2="768.1079"/><line style="stroke: #A80036; stroke-width: 1.5;" x1="741.5" x2="640" y1="768.1079" y2="768.1079"/><polygon fill="#A80036" points="650,764.1079,640,768.1079,650,772.1079,646,768.1079" style="stroke: #A80036; stroke-width: 1.0;"/><line style="stroke: #A80036; stroke-width: 1.5;" x1="628" x2="628" y1="724.1079" y2="756.1079"/><polygon fill="#A80036" points="624,746.1079,628,756.1079,632,746.1079,628,750.1079" style="stroke: #A80036; stroke-width: 1.0;"/><line style="stroke: #A80036; stroke-width: 1.5;" x1="628" x2="628" y1="416.0723" y2="436.0723"/><polygon fill="#A80036" points="624,426.0723,628,436.0723,632,426.0723,628,430.0723" style="stroke: #A80036; stroke-width: 1.0;"/><line style="stroke: #A80036; stroke-width: 1.5;" x1="628" x2="628" y1="137.9375" y2="185.0361"/><polygon fill="#A80036" points="624,175.0361,628,185.0361,632,175.0361,628,179.0361" style="stroke: #A80036; stroke-width: 1.0;"/><line style="stroke: #A80036; stroke-width: 1.5;" x1="628" x2="628" y1="780.1079" y2="812.1079"/><polygon fill="#A80036" points="624,802.1079,628,812.1079,632,802.1079,628,806.1079" style="stroke: #A80036; stroke-width: 1.0;"/><!--
@startuml

start

: git commit;
: git push;

partition "GitHub Actions" {
  fork
    : build docker image;
    partition "test" {
      fork
        : test bash default;
      fork again
        : test bash 3.2;
      fork again
        : test bash 4.0;
      fork again
        : test bash 4.1;
      fork again
        : test bash 4.2;
      fork again
        : test bash 4.3;
      fork again
        : test bash 4.4;
      fork again
        : test bash 5.0;
      end fork
    }
  fork again
    : format;
  fork again
    : lint;
  end fork
  if (is branch master?) then (true)
    partition "update-repository" {
      : generate super_unko.deb;
      : generate super_unko.rpm;
      : generate markdown TOC;
      : git push ;
    }
  endif
}

end

@enduml

PlantUML version 1.2019.09(Tue Aug 27 01:19:51 JST 2019)
(GPL source distribution)
Java Runtime: OpenJDK Runtime Environment
JVM: OpenJDK 64-Bit Server VM
Java Version: 11.0.6+10-post-Ubuntu-1ubuntu119.10.1
Operating System: Linux
OS Version: 5.3.0-40-generic
Default Encoding: UTF-8
Language: ja
Country: JP
--></g></svg>