<?xml version="1.0" encoding="UTF-8" standalone="no"?><svg xmlns="http://www.w3.org/2000/svg" xmlns:xlink="http://www.w3.org/1999/xlink" contentScriptType="application/ecmascript" contentStyleType="text/css" height="840px" preserveAspectRatio="none" style="width:1231px;height:840px;" version="1.1" viewBox="0 0 1231 840" width="1231px" zoomAndPan="magnify"><defs><filter height="300%" id="f1sv6rtzft83g1" width="300%" x="-1" y="-1"><feGaussianBlur result="blurOut" stdDeviation="2.0"/><feColorMatrix in="blurOut" result="blurOut2" type="matrix" values="0 0 0 0 0 0 0 0 0 0 0 0 0 0 0 0 0 0 .4 0"/><feOffset dx="4.0" dy="4.0" in="blurOut2" result="blurOut3"/><feBlend in="SourceGraphic" in2="blurOut3" mode="normal"/></filter></defs><g><ellipse cx="624" cy="20" fill="#000000" filter="url(#f1sv6rtzft83g1)" rx="10" ry="10" style="stroke: none; stroke-width: 1.0;"/><rect fill="#FEFECE" filter="url(#f1sv6rtzft83g1)" height="33.9688" rx="12.5" ry="12.5" style="stroke: #A80036; stroke-width: 1.5;" width="89" x="579.5" y="50"/><text fill="#000000" font-family="sans-serif" font-size="12" lengthAdjust="spacingAndGlyphs" textLength="65" x="593.5" y="71.1387">git commit</text><rect fill="#FEFECE" filter="url(#f1sv6rtzft83g1)" height="33.9688" rx="12.5" ry="12.5" style="stroke: #A80036; stroke-width: 1.5;" width="75" x="586.5" y="103.9688"/><text fill="#000000" font-family="sans-serif" font-size="12" lengthAdjust="spacingAndGlyphs" textLength="51" x="600.5" y="125.1074">git push</text><rect fill="#FFFFFF" filter="url(#f1sv6rtzft83g1)" height="641.7651" style="stroke: #000000; stroke-width: 2.0;" width="1210" x="10" y="147.9375"/><path d="M122,148.9375 L122,157.2344 L112,167.2344 L10,167.2344 " fill="none" style="stroke: #000000; stroke-width: 2.0;"/><text fill="#000000" font-family="sans-serif" font-size="14" lengthAdjust="spacingAndGlyphs" textLength="102" x="13" y="161.9326">GitHub Actions</text><rect fill="#000000" filter="url(#f1sv6rtzft83g1)" height="6" rx="2.5" ry="2.5" style="stroke: #000000; stroke-width: 1.0;" width="1190" x="20" y="184.2344"/><rect fill="#FEFECE" filter="url(#f1sv6rtzft83g1)" height="33.9688" rx="12.5" ry="12.5" style="stroke: #A80036; stroke-width: 1.5;" width="143" x="470.5" y="210.2344"/><text fill="#000000" font-family="sans-serif" font-size="12" lengthAdjust="spacingAndGlyphs" textLength="119" x="484.5" y="231.373">build docker image</text><rect fill="#FFFFFF" filter="url(#f1sv6rtzft83g1)" height="134.2656" style="stroke: #000000; stroke-width: 2.0;" width="1038" x="32" y="254.2031"/><path d="M69,255.2031 L69,263.5 L59,273.5 L32,273.5 " fill="none" style="stroke: #000000; stroke-width: 2.0;"/><text fill="#000000" font-family="sans-serif" font-size="14" lengthAdjust="spacingAndGlyphs" textLength="27" x="35" y="268.1982">test</text><rect fill="#000000" filter="url(#f1sv6rtzft83g1)" height="6" rx="2.5" ry="2.5" style="stroke: #000000; stroke-width: 1.0;" width="1018" x="42" y="290.5"/><rect fill="#FEFECE" filter="url(#f1sv6rtzft83g1)" height="33.9688" rx="12.5" ry="12.5" style="stroke: #A80036; stroke-width: 1.5;" width="132" x="54" y="316.5"/><text fill="#000000" font-family="sans-serif" font-size="12" lengthAdjust="spacingAndGlyphs" textLength="108" x="68" y="337.6387">test bash default</text><rect fill="#FEFECE" filter="url(#f1sv6rtzft83g1)" height="33.9688" rx="12.5" ry="12.5" style="stroke: #A80036; stroke-width: 1.5;" width="108" x="196" y="316.5"/><text fill="#000000" font-family="sans-serif" font-size="12" lengthAdjust="spacingAndGlyphs" textLength="84" x="210" y="337.6387">test bash 3.2</text><rect fill="#FEFECE" filter="url(#f1sv6rtzft83g1)" height="33.9688" rx="12.5" ry="12.5" style="stroke: #A80036; stroke-width: 1.5;" width="108" x="314" y="316.5"/><text fill="#000000" font-family="sans-serif" font-size="12" lengthAdjust="spacingAndGlyphs" textLength="84" x="328" y="337.6387">test bash 4.0</text><rect fill="#FEFECE" filter="url(#f1sv6rtzft83g1)" height="33.9688" rx="12.5" ry="12.5" style="stroke: #A80036; stroke-width: 1.5;" width="108" x="432" y="316.5"/><text fill="#000000" font-family="sans-serif" font-size="12" lengthAdjust="spacingAndGlyphs" textLength="84" x="446" y="337.6387">test bash 4.1</text><rect fill="#FEFECE" filter="url(#f1sv6rtzft83g1)" height="33.9688" rx="12.5" ry="12.5" style="stroke: #A80036; stroke-width: 1.5;" width="108" x="568" y="316.5"/><text fill="#000000" font-family="sans-serif" font-size="12" lengthAdjust="spacingAndGlyphs" textLength="84" x="582" y="337.6387">test bash 4.2</text><rect fill="#FEFECE" filter="url(#f1sv6rtzft83g1)" height="33.9688" rx="12.5" ry="12.5" style="stroke: #A80036; stroke-width: 1.5;" width="108" x="704" y="316.5"/><text fill="#000000" font-family="sans-serif" font-size="12" lengthAdjust="spacingAndGlyphs" textLength="84" x="718" y="337.6387">test bash 4.3</text><rect fill="#FEFECE" filter="url(#f1sv6rtzft83g1)" height="33.9688" rx="12.5" ry="12.5" style="stroke: #A80036; stroke-width: 1.5;" width="108" x="822" y="316.5"/><text fill="#000000" font-family="sans-serif" font-size="12" lengthAdjust="spacingAndGlyphs" textLength="84" x="836" y="337.6387">test bash 4.4</text><rect fill="#FEFECE" filter="url(#f1sv6rtzft83g1)" height="33.9688" rx="12.5" ry="12.5" style="stroke: #A80036; stroke-width: 1.5;" width="108" x="940" y="316.5"/><text fill="#000000" font-family="sans-serif" font-size="12" lengthAdjust="spacingAndGlyphs" textLength="84" x="954" y="337.6387">test bash 5.0</text><rect fill="#000000" filter="url(#f1sv6rtzft83g1)" height="6" rx="2.5" ry="2.5" style="stroke: #000000; stroke-width: 1.0;" width="1018" x="42" y="370.4688"/><rect fill="#FEFECE" filter="url(#f1sv6rtzft83g1)" height="33.9688" rx="12.5" ry="12.5" style="stroke: #A80036; stroke-width: 1.5;" width="65" x="1080" y="273.8672"/><text fill="#000000" font-family="sans-serif" font-size="12" lengthAdjust="spacingAndGlyphs" textLength="41" x="1094" y="295.0059">format</text><rect fill="#FEFECE" filter="url(#f1sv6rtzft83g1)" height="33.9688" rx="12.5" ry="12.5" style="stroke: #A80036; stroke-width: 1.5;" width="43" x="1155" y="273.8672"/><text fill="#000000" font-family="sans-serif" font-size="12" lengthAdjust="spacingAndGlyphs" textLength="19" x="1169" y="295.0059">lint</text><rect fill="#000000" filter="url(#f1sv6rtzft83g1)" height="6" rx="2.5" ry="2.5" style="stroke: #000000; stroke-width: 1.0;" width="1190" x="20" y="408.4688"/><rect fill="#FFFFFF" filter="url(#f1sv6rtzft83g1)" height="253.5234" style="stroke: #000000; stroke-width: 2.0;" width="207" x="520.5" y="480.1792"/><path d="M653.5,481.1792 L653.5,489.4761 L643.5,499.4761 L520.5,499.4761 " fill="none" style="stroke: #000000; stroke-width: 2.0;"/><text fill="#000000" font-family="sans-serif" font-size="14" lengthAdjust="spacingAndGlyphs" textLength="123" x="523.5" y="494.1743">update-repository</text><rect fill="#FEFECE" filter="url(#f1sv6rtzft83g1)" height="33.9688" rx="12.5" ry="12.5" style="stroke: #A80036; stroke-width: 1.5;" width="187" x="530.5" y="516.4761"/><text fill="#000000" font-family="sans-serif" font-size="12" lengthAdjust="spacingAndGlyphs" textLength="163" x="544.5" y="537.6147">generate super_unko.deb</text><rect fill="#FEFECE" filter="url(#f1sv6rtzft83g1)" height="33.9688" rx="12.5" ry="12.5" style="stroke: #A80036; stroke-width: 1.5;" width="187" x="530.5" y="570.4448"/><text fill="#000000" font-family="sans-serif" font-size="12" lengthAdjust="spacingAndGlyphs" textLength="163" x="544.5" y="591.5835">generate super_unko.rpm</text><rect fill="#FEFECE" filter="url(#f1sv6rtzft83g1)" height="33.9688" rx="12.5" ry="12.5" style="stroke: #A80036; stroke-width: 1.5;" width="178" x="535" y="633.7651"/><text fill="#000000" font-family="sans-serif" font-size="12" lengthAdjust="spacingAndGlyphs" textLength="154" x="549" y="654.9038">generate markdown TOC</text><rect fill="#FEFECE" filter="url(#f1sv6rtzft83g1)" height="33.9688" rx="12.5" ry="12.5" style="stroke: #A80036; stroke-width: 1.5;" width="79" x="584.5" y="687.7339"/><text fill="#000000" font-family="sans-serif" font-size="12" lengthAdjust="spacingAndGlyphs" textLength="51" x="598.5" y="708.8726">git push</text><polygon fill="#FEFECE" filter="url(#f1sv6rtzft83g1)" points="576.5,434.4688,671.5,434.4688,683.5,446.4688,671.5,458.4688,576.5,458.4688,564.5,446.4688,576.5,434.4688" style="stroke: #A80036; stroke-width: 1.5;"/><text fill="#000000" font-family="sans-serif" font-size="11" lengthAdjust="spacingAndGlyphs" textLength="23" x="628" y="468.6792">true</text><text fill="#000000" font-family="sans-serif" font-size="11" lengthAdjust="spacingAndGlyphs" textLength="95" x="576.5" y="450.2769">is branch oshiri?</text><polygon fill="#FEFECE" filter="url(#f1sv6rtzft83g1)" points="624,753.7026,636,765.7026,624,777.7026,612,765.7026,624,753.7026" style="stroke: #A80036; stroke-width: 1.5;"/><ellipse cx="624" cy="819.7026" fill="#FFFFFF" filter="url(#f1sv6rtzft83g1)" rx="10" ry="10" style="stroke: #000000; stroke-width: 1.5;"/><line style="stroke: #000000; stroke-width: 2.5;" x1="617.8128" x2="630.1872" y1="813.5155" y2="825.8898"/><line style="stroke: #000000; stroke-width: 2.5;" x1="630.1872" x2="617.8128" y1="813.5155" y2="825.8898"/><line style="stroke: #A80036; stroke-width: 1.5;" x1="624" x2="624" y1="30" y2="50"/><polygon fill="#A80036" points="620,40,624,50,628,40,624,44" style="stroke: #A80036; stroke-width: 1.0;"/><line style="stroke: #A80036; stroke-width: 1.5;" x1="624" x2="624" y1="83.9688" y2="103.9688"/><polygon fill="#A80036" points="620,93.9688,624,103.9688,628,93.9688,624,97.9688" style="stroke: #A80036; stroke-width: 1.0;"/><line style="stroke: #A80036; stroke-width: 1.5;" x1="120" x2="120" y1="296.5" y2="316.5"/><polygon fill="#A80036" points="116,306.5,120,316.5,124,306.5,120,310.5" style="stroke: #A80036; stroke-width: 1.0;"/><line style="stroke: #A80036; stroke-width: 1.5;" x1="250" x2="250" y1="296.5" y2="316.5"/><polygon fill="#A80036" points="246,306.5,250,316.5,254,306.5,250,310.5" style="stroke: #A80036; stroke-width: 1.0;"/><line style="stroke: #A80036; stroke-width: 1.5;" x1="368" x2="368" y1="296.5" y2="316.5"/><polygon fill="#A80036" points="364,306.5,368,316.5,372,306.5,368,310.5" style="stroke: #A80036; stroke-width: 1.0;"/><line style="stroke: #A80036; stroke-width: 1.5;" x1="486" x2="486" y1="296.5" y2="316.5"/><polygon fill="#A80036" points="482,306.5,486,316.5,490,306.5,486,310.5" style="stroke: #A80036; stroke-width: 1.0;"/><line style="stroke: #A80036; stroke-width: 1.5;" x1="622" x2="622" y1="296.5" y2="316.5"/><polygon fill="#A80036" points="618,306.5,622,316.5,626,306.5,622,310.5" style="stroke: #A80036; stroke-width: 1.0;"/><line style="stroke: #A80036; stroke-width: 1.5;" x1="758" x2="758" y1="296.5" y2="316.5"/><polygon fill="#A80036" points="754,306.5,758,316.5,762,306.5,758,310.5" style="stroke: #A80036; stroke-width: 1.0;"/><line style="stroke: #A80036; stroke-width: 1.5;" x1="876" x2="876" y1="296.5" y2="316.5"/><polygon fill="#A80036" points="872,306.5,876,316.5,880,306.5,876,310.5" style="stroke: #A80036; stroke-width: 1.0;"/><line style="stroke: #A80036; stroke-width: 1.5;" x1="994" x2="994" y1="296.5" y2="316.5"/><polygon fill="#A80036" points="990,306.5,994,316.5,998,306.5,994,310.5" style="stroke: #A80036; stroke-width: 1.0;"/><line style="stroke: #A80036; stroke-width: 1.5;" x1="120" x2="120" y1="350.4688" y2="370.4688"/><polygon fill="#A80036" points="116,360.4688,120,370.4688,124,360.4688,120,364.4688" style="stroke: #A80036; stroke-width: 1.0;"/><line style="stroke: #A80036; stroke-width: 1.5;" x1="250" x2="250" y1="350.4688" y2="370.4688"/><polygon fill="#A80036" points="246,360.4688,250,370.4688,254,360.4688,250,364.4688" style="stroke: #A80036; stroke-width: 1.0;"/><line style="stroke: #A80036; stroke-width: 1.5;" x1="368" x2="368" y1="350.4688" y2="370.4688"/><polygon fill="#A80036" points="364,360.4688,368,370.4688,372,360.4688,368,364.4688" style="stroke: #A80036; stroke-width: 1.0;"/><line style="stroke: #A80036; stroke-width: 1.5;" x1="486" x2="486" y1="350.4688" y2="370.4688"/><polygon fill="#A80036" points="482,360.4688,486,370.4688,490,360.4688,486,364.4688" style="stroke: #A80036; stroke-width: 1.0;"/><line style="stroke: #A80036; stroke-width: 1.5;" x1="622" x2="622" y1="350.4688" y2="370.4688"/><polygon fill="#A80036" points="618,360.4688,622,370.4688,626,360.4688,622,364.4688" style="stroke: #A80036; stroke-width: 1.0;"/><line style="stroke: #A80036; stroke-width: 1.5;" x1="758" x2="758" y1="350.4688" y2="370.4688"/><polygon fill="#A80036" points="754,360.4688,758,370.4688,762,360.4688,758,364.4688" style="stroke: #A80036; stroke-width: 1.0;"/><line style="stroke: #A80036; stroke-width: 1.5;" x1="876" x2="876" y1="350.4688" y2="370.4688"/><polygon fill="#A80036" points="872,360.4688,876,370.4688,880,360.4688,876,364.4688" style="stroke: #A80036; stroke-width: 1.0;"/><line style="stroke: #A80036; stroke-width: 1.5;" x1="994" x2="994" y1="350.4688" y2="370.4688"/><polygon fill="#A80036" points="990,360.4688,994,370.4688,998,360.4688,994,364.4688" style="stroke: #A80036; stroke-width: 1.0;"/><line style="stroke: #A80036; stroke-width: 1.5;" x1="542" x2="542" y1="244.2031" y2="290.5"/><polygon fill="#A80036" points="538,280.5,542,290.5,546,280.5,542,284.5" style="stroke: #A80036; stroke-width: 1.0;"/><line style="stroke: #A80036; stroke-width: 1.5;" x1="542" x2="542" y1="190.2344" y2="210.2344"/><polygon fill="#A80036" points="538,200.2344,542,210.2344,546,200.2344,542,204.2344" style="stroke: #A80036; stroke-width: 1.0;"/><line style="stroke: #A80036; stroke-width: 1.5;" x1="1112.5" x2="1112.5" y1="190.2344" y2="273.8672"/><polygon fill="#A80036" points="1108.5,263.8672,1112.5,273.8672,1116.5,263.8672,1112.5,267.8672" style="stroke: #A80036; stroke-width: 1.0;"/><line style="stroke: #A80036; stroke-width: 1.5;" x1="1176.5" x2="1176.5" y1="190.2344" y2="273.8672"/><polygon fill="#A80036" points="1172.5,263.8672,1176.5,273.8672,1180.5,263.8672,1176.5,267.8672" style="stroke: #A80036; stroke-width: 1.0;"/><line style="stroke: #A80036; stroke-width: 1.5;" x1="542" x2="542" y1="376.4688" y2="408.4688"/><polygon fill="#A80036" points="538,398.4688,542,408.4688,546,398.4688,542,402.4688" style="stroke: #A80036; stroke-width: 1.0;"/><line style="stroke: #A80036; stroke-width: 1.5;" x1="1112.5" x2="1112.5" y1="307.8359" y2="408.4688"/><polygon fill="#A80036" points="1108.5,398.4688,1112.5,408.4688,1116.5,398.4688,1112.5,402.4688" style="stroke: #A80036; stroke-width: 1.0;"/><line style="stroke: #A80036; stroke-width: 1.5;" x1="1176.5" x2="1176.5" y1="307.8359" y2="408.4688"/><polygon fill="#A80036" points="1172.5,398.4688,1176.5,408.4688,1180.5,398.4688,1176.5,402.4688" style="stroke: #A80036; stroke-width: 1.0;"/><line style="stroke: #A80036; stroke-width: 1.5;" x1="624" x2="624" y1="550.4448" y2="570.4448"/><polygon fill="#A80036" points="620,560.4448,624,570.4448,628,560.4448,624,564.4448" style="stroke: #A80036; stroke-width: 1.0;"/><line style="stroke: #A80036; stroke-width: 1.5;" x1="624" x2="624" y1="604.4136" y2="633.7651"/><polygon fill="#A80036" points="620,623.7651,624,633.7651,628,623.7651,624,627.7651" style="stroke: #A80036; stroke-width: 1.0;"/><line style="stroke: #A80036; stroke-width: 1.5;" x1="624" x2="624" y1="667.7339" y2="687.7339"/><polygon fill="#A80036" points="620,677.7339,624,687.7339,628,677.7339,624,681.7339" style="stroke: #A80036; stroke-width: 1.0;"/><line style="stroke: #A80036; stroke-width: 1.5;" x1="624" x2="624" y1="458.4688" y2="516.4761"/><polygon fill="#A80036" points="620,506.4761,624,516.4761,628,506.4761,624,510.4761" style="stroke: #A80036; stroke-width: 1.0;"/><line style="stroke: #A80036; stroke-width: 1.5;" x1="683.5" x2="737.5" y1="446.4688" y2="446.4688"/><polygon fill="#A80036" points="733.5,603.7651,737.5,613.7651,741.5,603.7651,737.5,607.7651" style="stroke: #A80036; stroke-width: 1.5;"/><line style="stroke: #A80036; stroke-width: 1.5;" x1="737.5" x2="737.5" y1="446.4688" y2="765.7026"/><line style="stroke: #A80036; stroke-width: 1.5;" x1="737.5" x2="636" y1="765.7026" y2="765.7026"/><polygon fill="#A80036" points="646,761.7026,636,765.7026,646,769.7026,642,765.7026" style="stroke: #A80036; stroke-width: 1.0;"/><line style="stroke: #A80036; stroke-width: 1.5;" x1="624" x2="624" y1="721.7026" y2="753.7026"/><polygon fill="#A80036" points="620,743.7026,624,753.7026,628,743.7026,624,747.7026" style="stroke: #A80036; stroke-width: 1.0;"/><line style="stroke: #A80036; stroke-width: 1.5;" x1="624" x2="624" y1="414.4688" y2="434.4688"/><polygon fill="#A80036" points="620,424.4688,624,434.4688,628,424.4688,624,428.4688" style="stroke: #A80036; stroke-width: 1.0;"/><line style="stroke: #A80036; stroke-width: 1.5;" x1="624" x2="624" y1="137.9375" y2="184.2344"/><polygon fill="#A80036" points="620,174.2344,624,184.2344,628,174.2344,624,178.2344" style="stroke: #A80036; stroke-width: 1.0;"/><line style="stroke: #A80036; stroke-width: 1.5;" x1="624" x2="624" y1="777.7026" y2="809.7026"/><polygon fill="#A80036" points="620,799.7026,624,809.7026,628,799.7026,624,803.7026" style="stroke: #A80036; stroke-width: 1.0;"/><!--MD5=[b79ab0b4e7b5b2ca89c0e03a37a45184]
@startuml

start

: git commit;
: git push;

partition "GitHub Actions" {
  fork
    : build docker image;
    partition "test" {
      fork
        : test bash default;
      fork again
        : test bash 3.2;
      fork again
        : test bash 4.0;
      fork again
        : test bash 4.1;
      fork again
        : test bash 4.2;
      fork again
        : test bash 4.3;
      fork again
        : test bash 4.4;
      fork again
        : test bash 5.0;
      end fork
    }
  fork again
    : format;
  fork again
    : lint;
  end fork
  if (is branch oshiri?) then (true)
    partition "update-repository" {
      : generate super_unko.deb;
      : generate super_unko.rpm;
      : generate markdown TOC;
      : git push ;
    }
  endif
}

end

@enduml

PlantUML version 1.2020.12(Sat Jun 06 19:54:15 JST 2020)
(GPL source distribution)
Java Runtime: OpenJDK Runtime Environment
JVM: OpenJDK 64-Bit Server VM
Default Encoding: UTF-8
Language: en
Country: US
--></g></svg>